<svg width="255" height="50">
 <g font-family="Arial" font-weight="bold" font-size="66.5">
  <text fill="#0000EE" x="0" y="0"  transform="matrix(0.59,0,0,0.059,0,49)">C</text>
  <text fill="#DD0000" x="0" y="0"  transform="matrix(0.65,0,0,0.069,1,46.05)">T</text>
  <text fill="#00BB00" x="0" y="0"  transform="matrix(0.53,0,0,0.083,2,42.6)">A</text>
  <text fill="#F9A500" x="0" y="0"  transform="matrix(0.55,0,0,0.789,0,38.45)">G</text>
  
  <text fill="#DD0000" x="0" y="0"  transform="matrix(0.65,0,0,0.026,26,49)">T</text>
  <text fill="#F9A500" x="0" y="0"  transform="matrix(0.55,0,0,0.034,25,47.7)">G</text>
  <text fill="#00BB00" x="0" y="0"  transform="matrix(0.53,0,0,0.042,27,46)">A</text>
  <text fill="#0000EE" x="0" y="0"  transform="matrix(0.59,0,0,0.898,25,43.9)">C</text>
  
  <text fill="#DD0000" x="0" y="0"  transform="matrix(0.65,0,0,0.055,51,49)">T</text>
  <text fill="#00BB00" x="0" y="0"  transform="matrix(0.53,0,0,0.062,52,46.25)">A</text>
  <text fill="#0000EE" x="0" y="0"  transform="matrix(0.59,0,0,0.074,50,43.15)">C</text>
  <text fill="#F9A500" x="0" y="0"  transform="matrix(0.55,0,0,0.809,50,39.45)">G</text>
  
  <text fill="#0000EE" x="0" y="0"  transform="matrix(0.59,0,0,0.077,75,49)">C</text>
  <text fill="#F9A500" x="0" y="0"  transform="matrix(0.55,0,0,0.090,75,45.15)">G</text>
  <text fill="#00BB00" x="0" y="0"  transform="matrix(0.53,0,0,0.106,77,40.65)">A</text>
  <text fill="#DD0000" x="0" y="0"  transform="matrix(0.65,0,0,0.727,76,35.35)">T</text>
  
  <text fill="#00BB00" x="0" y="0"  transform="matrix(0.53,0,0,0.049,102,49)">A</text>
  <text fill="#DD0000" x="0" y="0"  transform="matrix(0.65,0,0,0.064,101,46.55)">T</text>
  <text fill="#F9A500" x="0" y="0"  transform="matrix(0.55,0,0,0.071,100,43.35)">G</text>
  <text fill="#0000EE" x="0" y="0"  transform="matrix(0.59,0,0,0.816,100,39.8)">C</text>
  
  <text fill="#0000EE" x="0" y="0"  transform="matrix(0.59,0,0,0.047,125,49)">C</text>
  <text fill="#F9A500" x="0" y="0"  transform="matrix(0.55,0,0,0.055,125,46.65)">G</text>
  <text fill="#00BB00" x="0" y="0"  transform="matrix(0.53,0,0,0.125,127,43.9)">A</text>
  <text fill="#DD0000" x="0" y="0"  transform="matrix(0.65,0,0,0.773,126,37.65)">T</text>
  
  <text fill="#0000EE" x="0" y="0"  transform="matrix(0.59,0,0,0.029,150,49)">C</text>
  <text fill="#DD0000" x="0" y="0"  transform="matrix(0.65,0,0,0.041,151,47.55)">T</text>
  <text fill="#F9A500" x="0" y="0"  transform="matrix(0.55,0,0,0.091,150,45.5)">G</text>
  <text fill="#00BB00" x="0" y="0"  transform="matrix(0.53,0,0,0.839,152,40.95)">A</text>
  
  <text fill="#DD0000" x="0" y="0"  transform="matrix(0.65,0,0,0.060,176,49)">T</text>
  <text fill="#0000EE" x="0" y="0"  transform="matrix(0.59,0,0,0.072,175,46)">C</text>
  <text fill="#F9A500" x="0" y="0"  transform="matrix(0.55,0,0,0.081,175,42.4)">G</text>
  <text fill="#00BB00" x="0" y="0"  transform="matrix(0.53,0,0,0.787,177,38.35)">A</text>
  
  <text fill="#0000EE" x="0" y="0"  transform="matrix(0.59,0,0,0.052,200,49)">C</text>
  <text fill="#00BB00" x="0" y="0"  transform="matrix(0.53,0,0,0.075,202,46.4)">A</text>
  <text fill="#DD0000" x="0" y="0"  transform="matrix(0.65,0,0,0.133,201,42.65)">T</text>
  <text fill="#F9A500" x="0" y="0"  transform="matrix(0.55,0,0,0.740,200,36)">G</text>
  
  <text fill="#00BB00" x="0" y="0"  transform="matrix(0.53,0,0,0.051,227,49)">A</text>
  <text fill="#0000EE" x="0" y="0"  transform="matrix(0.59,0,0,0.054,225,46.45)">C</text>
  <text fill="#DD0000" x="0" y="0"  transform="matrix(0.65,0,0,0.065,226,43.75)">T</text>
  <text fill="#F9A500" x="0" y="0"  transform="matrix(0.55,0,0,0.830,225,40.5)">G</text>
  
 </g>
</svg>
