<svg width="205" height="50">
 <g font-family="Arial" font-weight="bold" font-size="66.5">
  <text fill="#0000EE" x="0" y="0"  transform="matrix(0.59,0,0,0.143,0,49)">C</text>
  <text fill="#DD0000" x="0" y="0"  transform="matrix(0.65,0,0,0.222,1,41.85)">T</text>
  <text fill="#00BB00" x="0" y="0"  transform="matrix(0.53,0,0,0.251,2,30.75)">A</text>
  <text fill="#F9A500" x="0" y="0"  transform="matrix(0.55,0,0,0.383,0,18.2)">G</text>
  
  <text fill="#DD0000" x="0" y="0"  transform="matrix(0.65,0,0,0.108,26,49)">T</text>
  <text fill="#0000EE" x="0" y="0"  transform="matrix(0.59,0,0,0.149,25,43.6)">C</text>
  <text fill="#F9A500" x="0" y="0"  transform="matrix(0.55,0,0,0.318,25,36.15)">G</text>
  <text fill="#00BB00" x="0" y="0"  transform="matrix(0.53,0,0,0.425,27,20.25)">A</text>
  
  <text fill="#00BB00" x="0" y="0"  transform="matrix(0.53,0,0,0.076,52,49)">A</text>
  <text fill="#DD0000" x="0" y="0"  transform="matrix(0.65,0,0,0.100,51,45.2)">T</text>
  <text fill="#F9A500" x="0" y="0"  transform="matrix(0.55,0,0,0.141,50,40.2)">G</text>
  <text fill="#0000EE" x="0" y="0"  transform="matrix(0.59,0,0,0.683,50,33.15)">C</text>
  
  <text fill="#0000EE" x="0" y="0"  transform="matrix(0.59,0,0,0.001,75,49)">C</text>
  <text fill="#DD0000" x="0" y="0"  transform="matrix(0.65,0,0,0.018,76,48.95)">T</text>
  <text fill="#00BB00" x="0" y="0"  transform="matrix(0.53,0,0,0.047,77,48.05)">A</text>
  <text fill="#F9A500" x="0" y="0"  transform="matrix(0.55,0,0,0.934,75,45.7)">G</text>
  
  <text fill="#F9A500" x="0" y="0"  transform="matrix(0.55,0,0,0.117,100,49)">G</text>
  <text fill="#00BB00" x="0" y="0"  transform="matrix(0.53,0,0,0.140,102,43.15)">A</text>
  <text fill="#0000EE" x="0" y="0"  transform="matrix(0.59,0,0,0.211,100,36.15)">C</text>
  <text fill="#DD0000" x="0" y="0"  transform="matrix(0.65,0,0,0.532,101,25.6)">T</text>
  
  <text fill="#DD0000" x="0" y="0"  transform="matrix(0.65,0,0,0.078,126,49)">T</text>
  <text fill="#F9A500" x="0" y="0"  transform="matrix(0.55,0,0,0.195,125,45.1)">G</text>
  <text fill="#00BB00" x="0" y="0"  transform="matrix(0.53,0,0,0.337,127,35.35)">A</text>
  <text fill="#0000EE" x="0" y="0"  transform="matrix(0.59,0,0,0.390,125,18.5)">C</text>
  
  <text fill="#0000EE" x="0" y="0"  transform="matrix(0.59,0,0,0.032,150,49)">C</text>
  <text fill="#DD0000" x="0" y="0"  transform="matrix(0.65,0,0,0.114,151,47.4)">T</text>
  <text fill="#F9A500" x="0" y="0"  transform="matrix(0.55,0,0,0.148,150,41.7)">G</text>
  <text fill="#00BB00" x="0" y="0"  transform="matrix(0.53,0,0,0.706,152,34.3)">A</text>
  
  <text fill="#00BB00" x="0" y="0"  transform="matrix(0.53,0,0,0.058,177,49)">A</text>
  <text fill="#F9A500" x="0" y="0"  transform="matrix(0.55,0,0,0.138,175,46.1)">G</text>
  <text fill="#DD0000" x="0" y="0"  transform="matrix(0.65,0,0,0.386,176,39.2)">T</text>
  <text fill="#0000EE" x="0" y="0"  transform="matrix(0.59,0,0,0.417,175,19.9)">C</text>
  
 </g>
</svg>
